<?xml version="1.0" encoding="utf-8"?>
<svg viewBox="155.424 157.78 284.074 90.54" xmlns="http://www.w3.org/2000/svg" xmlns:bx="https://boxy-svg.com">
  <defs>
    <style bx:fonts="Nunito">@import url(https://fonts.googleapis.com/css2?family=Nunito%3Aital%2Cwght%400%2C200%3B0%2C300%3B0%2C400%3B0%2C500%3B0%2C600%3B0%2C700%3B0%2C800%3B0%2C900%3B1%2C200%3B1%2C300%3B1%2C400%3B1%2C500%3B1%2C600%3B1%2C700%3B1%2C800%3B1%2C900&amp;display=swap);</style>
  </defs>
  <text style="fill: rgb(217, 217, 217); font-family: Nunito; font-size: 66.5px; font-weight: 700; white-space: pre;" x="240.407" y="224.912">Giełda</text>
  <g transform="matrix(0.078683, 0, 0, 0.078683, 154.984985, 161.314178)" style="">
    <g transform="translate(0.000000,511.000000) scale(0.100000,-0.100000)">
      <path d="M187.8,3883.6c-24.5-10.2-53.1-36.7-65.3-59.2C106.1,3795.8,100,2666.9,100,100.9c0-3596.9,0-3684.7,38.8-3731.7l38.8-49h4821.8h4821.8l38.8,49c55.1,67.4,53.1,224.6-4.1,296l-40.8,53.1H5160.6H508.3V258.1c0,3386.7-2,3541.8-36.7,3584.7C430.7,3893.8,267.4,3918.3,187.8,3883.6z" style="fill: rgb(217, 217, 217);"/>
      <path d="M8204.3,3683.5c-387.9-110.2-716.5-206.2-730.8-214.3c-44.9-28.6-26.5-57.2,142.9-232.7l167.4-171.5l-857.4-857.4L6067,1348.2L5246.3,2473c-451.1,618.5-841,1137.1-865.5,1155.4c-24.5,16.3-87.8,30.6-142.9,30.6c-98,0-144.9-28.6-1522.9-910.5c-781.9-500.1-1445.3-935-1478-963.5c-93.9-89.8-108.2-214.3-36.8-349.1c32.7-61.3,128.6-104.1,230.7-104.1c81.7,0,191.9,65.3,1412.6,849.2c726.7,465.4,1324.9,845.1,1326.9,841c12.3-16.3,1247.3-1710.7,1437.1-1969.9c271.5-371.5,304.2-402.1,449.1-389.9l110.3,10.2l1008.4,1008.4l1008.4,1008.4l189.9-189.8c104.1-102.1,204.1-187.8,222.5-187.8c20.4,0,42.9,26.5,55.1,67.4c71.4,224.6,371.5,1412.6,365.4,1449.4c-4.1,30.6-22.5,44.9-57.2,49C8931.1,3879.5,8592.2,3791.7,8204.3,3683.5z" style="fill: rgb(217, 217, 217);"/>
      <path d="M7610.3,1409.4c-20.4-8.2-49-38.8-59.2-69.4c-14.3-34.7-18.4-769.6-16.3-2092.4c6.1-1925,8.1-2039.4,42.9-2074.1c32.7-34.7,91.9-36.7,730.8-36.7h696.1l38.8,49c36.8,47,38.8,110.2,38.8,2094.5c0,1945.4-2,2049.6-36.7,2092.4c-36.7,44.9-38.8,44.9-716.5,49C7955.3,1421.7,7632.7,1417.6,7610.3,1409.4z" style="fill: rgb(217, 217, 217);"/>
      <path d="M3202.9,903.1c-40.8-40.8-40.8-67.4-40.8-1865.8c0-1986.3-6.1-1872,108.2-1900.5c24.5-6.1,340.9-10.2,702.3-6.1c579.8,6.1,661.4,10.2,692,40.8c30.6,30.6,32.7,185.8,32.7,1865.8V870.5l-44.9,36.8c-40.8,34.7-100,36.7-726.7,36.7C3270.3,944,3241.7,941.9,3202.9,903.1z" style="fill: rgb(217, 217, 217);"/>
      <path d="M5391.3-144.1l-44.9-47v-1298.3v-1300.4l53.1-40.8c53.1-40.8,77.6-42.9,726.7-42.9h671.6l49,51l51,49v1288.1v1288.1l-51,49l-49,51H6116h-681.8L5391.3-144.1z" style="fill: rgb(217, 217, 217);"/>
      <path d="M1022.7-640.1l-44.9-30.6v-1067.6c0-969.7,4.1-1071.7,34.7-1096.2c26.5-22.5,169.4-30.6,687.9-34.7c361.3-4.1,675.7,0,700.2,6.1c112.3,26.5,108.2-12.2,108.2,1124.8c0,1022.7-2,1051.3-40.8,1090.1c-38.8,38.8-67.4,40.8-720.6,40.8C1165.6-607.5,1061.5-611.6,1022.7-640.1z" style="fill: rgb(217, 217, 217);"/>
    </g>
  </g>
  <rect style="fill: rgb(217, 217, 217); stroke: rgb(217, 217, 217);" x="155.424" y="236.868" width="280.768" height="2.695" rx="1.3" ry="1.3"/>
</svg>